<?xml version="1.0" encoding="UTF-8" standalone="no"?>
<!DOCTYPE svg PUBLIC "-//W3C//DTD SVG 1.1//EN"
 "http://www.w3.org/Graphics/SVG/1.1/DTD/svg11.dtd">
<!-- Generated by graphviz version 2.40.1 (0)
 -->
<!-- Title: Rel Pages: 1 -->
<svg width="803pt" height="206pt"
 viewBox="0.00 0.00 803.24 206.00" xmlns="http://www.w3.org/2000/svg" xmlns:xlink="http://www.w3.org/1999/xlink">
<g id="graph0" class="graph" transform="scale(1 1) rotate(0) translate(4 202)">
<title>Rel</title>
<polygon fill="#ffffff" stroke="transparent" points="-4,4 -4,-202 799.2422,-202 799.2422,4 -4,4"/>
<!-- s0w0 -->
<g id="node1" class="node">
<title>s0w0</title>
<ellipse fill="none" stroke="#000000" cx="89.0421" cy="-180" rx="69.5877" ry="18"/>
<text text-anchor="middle" x="89.0421" y="-176.3" font-family="Times,serif" font-size="14.00" fill="#000000">$0 &lt;&#45; @instance</text>
</g>
<!-- s0w3 -->
<g id="node2" class="node">
<title>s0w3</title>
<ellipse fill="none" stroke="#000000" cx="266.7295" cy="-180" rx="52.7911" ry="18"/>
<text text-anchor="middle" x="266.7295" y="-176.3" font-family="Times,serif" font-size="14.00" fill="#000000">$3&lt;&#45; @mul</text>
</g>
<!-- s0w0&#45;&gt;s0w3 -->
<g id="edge1" class="edge">
<title>s0w0&#45;&gt;s0w3</title>
<path fill="none" stroke="#000000" d="M153.9456,-173.4727C171.1864,-173.1446 189.7269,-173.179 206.6952,-173.5759"/>
<polygon fill="#000000" stroke="#000000" points="206.9361,-177.084 217.0316,-173.8698 207.1351,-170.0869 206.9361,-177.084"/>
</g>
<!-- s0w0&#45;&gt;s0w3 -->
<g id="edge2" class="edge">
<title>s0w0&#45;&gt;s0w3</title>
<path fill="none" stroke="#000000" d="M153.9456,-186.5273C171.1864,-186.8554 189.7269,-186.821 206.6952,-186.4241"/>
<polygon fill="#000000" stroke="#000000" points="207.1351,-189.9131 217.0316,-186.1302 206.9361,-182.916 207.1351,-189.9131"/>
</g>
<!-- s0w6 -->
<g id="node7" class="node">
<title>s0w6</title>
<ellipse fill="none" stroke="#000000" cx="414.5196" cy="-126" rx="51.1914" ry="18"/>
<text text-anchor="middle" x="414.5196" y="-122.3" font-family="Times,serif" font-size="14.00" fill="#000000">$6&lt;&#45; @add</text>
</g>
<!-- s0w3&#45;&gt;s0w6 -->
<g id="edge7" class="edge">
<title>s0w3&#45;&gt;s0w6</title>
<path fill="none" stroke="#000000" d="M302.883,-166.7901C322.8916,-159.4793 347.9465,-150.3247 369.2479,-142.5415"/>
<polygon fill="#000000" stroke="#000000" points="370.5479,-145.7929 378.7393,-139.0735 368.1455,-139.2181 370.5479,-145.7929"/>
</g>
<!-- s0w1 -->
<g id="node3" class="node">
<title>s0w1</title>
<ellipse fill="none" stroke="#000000" cx="89.0421" cy="-126" rx="69.5877" ry="18"/>
<text text-anchor="middle" x="89.0421" y="-122.3" font-family="Times,serif" font-size="14.00" fill="#000000">$1 &lt;&#45; @instance</text>
</g>
<!-- s0w4 -->
<g id="node4" class="node">
<title>s0w4</title>
<ellipse fill="none" stroke="#000000" cx="266.7295" cy="-126" rx="52.7911" ry="18"/>
<text text-anchor="middle" x="266.7295" y="-122.3" font-family="Times,serif" font-size="14.00" fill="#000000">$4&lt;&#45; @mul</text>
</g>
<!-- s0w1&#45;&gt;s0w4 -->
<g id="edge3" class="edge">
<title>s0w1&#45;&gt;s0w4</title>
<path fill="none" stroke="#000000" d="M153.9456,-119.4727C171.1864,-119.1446 189.7269,-119.179 206.6952,-119.5759"/>
<polygon fill="#000000" stroke="#000000" points="206.9361,-123.084 217.0316,-119.8698 207.1351,-116.0869 206.9361,-123.084"/>
</g>
<!-- s0w1&#45;&gt;s0w4 -->
<g id="edge4" class="edge">
<title>s0w1&#45;&gt;s0w4</title>
<path fill="none" stroke="#000000" d="M153.9456,-132.5273C171.1864,-132.8554 189.7269,-132.821 206.6952,-132.4241"/>
<polygon fill="#000000" stroke="#000000" points="207.1351,-135.9131 217.0316,-132.1302 206.9361,-128.916 207.1351,-135.9131"/>
</g>
<!-- s0w4&#45;&gt;s0w6 -->
<g id="edge8" class="edge">
<title>s0w4&#45;&gt;s0w6</title>
<path fill="none" stroke="#000000" d="M319.6677,-126C330.448,-126 341.877,-126 352.9282,-126"/>
<polygon fill="#000000" stroke="#000000" points="352.9417,-129.5001 362.9417,-126 352.9416,-122.5001 352.9417,-129.5001"/>
</g>
<!-- s0w2 -->
<g id="node5" class="node">
<title>s0w2</title>
<ellipse fill="none" stroke="#000000" cx="89.0421" cy="-18" rx="89.0842" ry="18"/>
<text text-anchor="middle" x="89.0421" y="-14.3" font-family="Times,serif" font-size="14.00" fill="#000000">$2 &lt;&#45; @short_witness</text>
</g>
<!-- s0w5 -->
<g id="node6" class="node">
<title>s0w5</title>
<ellipse fill="none" stroke="#000000" cx="266.7295" cy="-18" rx="52.7911" ry="18"/>
<text text-anchor="middle" x="266.7295" y="-14.3" font-family="Times,serif" font-size="14.00" fill="#000000">$5&lt;&#45; @mul</text>
</g>
<!-- s0w2&#45;&gt;s0w5 -->
<g id="edge5" class="edge">
<title>s0w2&#45;&gt;s0w5</title>
<path fill="none" stroke="#000000" d="M171.6436,-11.2648C183.4395,-11.2087 195.3829,-11.3119 206.6364,-11.5745"/>
<polygon fill="#000000" stroke="#000000" points="206.6585,-15.0764 216.7534,-11.8604 206.8563,-8.0792 206.6585,-15.0764"/>
</g>
<!-- s0w2&#45;&gt;s0w5 -->
<g id="edge6" class="edge">
<title>s0w2&#45;&gt;s0w5</title>
<path fill="none" stroke="#000000" d="M171.6436,-24.7352C183.4395,-24.7913 195.3829,-24.6881 206.6364,-24.4255"/>
<polygon fill="#000000" stroke="#000000" points="206.8563,-27.9208 216.7534,-24.1396 206.6585,-20.9236 206.8563,-27.9208"/>
</g>
<!-- s0w7 -->
<g id="node9" class="node">
<title>s0w7</title>
<ellipse fill="none" stroke="#000000" cx="414.5196" cy="-72" rx="59.2899" ry="18"/>
<text text-anchor="middle" x="414.5196" y="-68.3" font-family="Times,serif" font-size="14.00" fill="#000000">$7 &lt;&#45; @mulc</text>
</g>
<!-- s0w5&#45;&gt;s0w7 -->
<g id="edge9" class="edge">
<title>s0w5&#45;&gt;s0w7</title>
<path fill="none" stroke="#000000" d="M302.883,-31.2099C322.1375,-38.2451 346.0651,-46.9879 366.824,-54.5728"/>
<polygon fill="#000000" stroke="#000000" points="365.8234,-57.9335 376.4172,-58.078 368.2258,-51.3586 365.8234,-57.9335"/>
</g>
<!-- s0w8 -->
<g id="node10" class="node">
<title>s0w8</title>
<ellipse fill="none" stroke="#000000" cx="561.0098" cy="-99" rx="51.1914" ry="18"/>
<text text-anchor="middle" x="561.0098" y="-95.3" font-family="Times,serif" font-size="14.00" fill="#000000">$8&lt;&#45; @add</text>
</g>
<!-- s0w6&#45;&gt;s0w8 -->
<g id="edge11" class="edge">
<title>s0w6&#45;&gt;s0w8</title>
<path fill="none" stroke="#000000" d="M460.067,-117.605C474.3977,-114.9637 490.3873,-112.0166 505.3387,-109.2609"/>
<polygon fill="#000000" stroke="#000000" points="506.2906,-112.6445 515.4906,-107.3898 505.0218,-105.7604 506.2906,-112.6445"/>
</g>
<!-- s0c7 -->
<g id="node8" class="node">
<title>s0c7</title>
<ellipse fill="none" stroke="#000000" cx="266.7295" cy="-72" rx="39.7935" ry="18"/>
<text text-anchor="middle" x="266.7295" y="-68.3" font-family="Times,serif" font-size="14.00" fill="#000000">&lt; 126 &gt;</text>
</g>
<!-- s0c7&#45;&gt;s0w7 -->
<g id="edge10" class="edge">
<title>s0c7&#45;&gt;s0w7</title>
<path fill="none" stroke="#000000" d="M306.7237,-72C318.6449,-72 332.069,-72 345.293,-72"/>
<polygon fill="#000000" stroke="#000000" points="345.3382,-75.5001 355.3382,-72 345.3382,-68.5001 345.3382,-75.5001"/>
</g>
<!-- s0w7&#45;&gt;s0w8 -->
<g id="edge12" class="edge">
<title>s0w7&#45;&gt;s0w8</title>
<path fill="none" stroke="#000000" d="M465.3436,-81.3675C478.2504,-83.7464 492.1852,-86.3147 505.3196,-88.7356"/>
<polygon fill="#000000" stroke="#000000" points="504.7085,-92.1818 515.1773,-90.5525 505.9774,-85.2978 504.7085,-92.1818"/>
</g>
<!-- s0az0 -->
<g id="node11" class="node">
<title>s0az0</title>
<ellipse fill="none" stroke="#000000" cx="721.7987" cy="-99" rx="73.387" ry="18"/>
<text text-anchor="middle" x="721.7987" y="-95.3" font-family="Times,serif" font-size="14.00" fill="#000000">@assert_zero($8)</text>
</g>
<!-- s0w8&#45;&gt;s0az0 -->
<g id="edge13" class="edge">
<title>s0w8&#45;&gt;s0az0</title>
<path fill="none" stroke="#000000" d="M612.7695,-99C620.8855,-99 629.4495,-99 638.0646,-99"/>
<polygon fill="#000000" stroke="#000000" points="638.1779,-102.5001 648.1778,-99 638.1778,-95.5001 638.1779,-102.5001"/>
</g>
</g>
</svg>
